<?xml version="1.0" encoding="UTF-8" standalone="no"?>
<!-- Created with Inkscape (http://www.inkscape.org/) -->

<svg
   width="65.051888mm"
   height="42.599995mm"
   viewBox="0 0 65.051888 42.599995"
   version="1.1"
   id="svg1"
   xml:space="preserve"
   inkscape:version="1.4 (86a8ad7, 2024-10-11)"
   sodipodi:docname="PermittivitySensorTypes.svg"
   xmlns:inkscape="http://www.inkscape.org/namespaces/inkscape"
   xmlns:sodipodi="http://sodipodi.sourceforge.net/DTD/sodipodi-0.dtd"
   xmlns:xlink="http://www.w3.org/1999/xlink"
   xmlns="http://www.w3.org/2000/svg"
   xmlns:svg="http://www.w3.org/2000/svg"><sodipodi:namedview
     id="namedview1"
     pagecolor="#ffffff"
     bordercolor="#999999"
     borderopacity="1"
     inkscape:showpageshadow="0"
     inkscape:pageopacity="0"
     inkscape:pagecheckerboard="0"
     inkscape:deskcolor="#d1d1d1"
     inkscape:document-units="mm"
     showgrid="true"
     inkscape:zoom="1.4022026"
     inkscape:cx="655.39744"
     inkscape:cy="394.73611"
     inkscape:window-width="2880"
     inkscape:window-height="1541"
     inkscape:window-x="5749"
     inkscape:window-y="-11"
     inkscape:window-maximized="1"
     inkscape:current-layer="layer1"><inkscape:grid
       id="grid1"
       units="px"
       originx="-160.1647"
       originy="-12.449999"
       spacingx="0.26458333"
       spacingy="0.26458334"
       empcolor="#0099e5"
       empopacity="0.30196078"
       color="#0099e5"
       opacity="0.14901961"
       empspacing="5"
       dotted="false"
       gridanglex="30"
       gridanglez="30"
       visible="true"
       enabled="false" /><inkscape:grid
       type="axonomgrid"
       id="grid2"
       units="mm"
       originx="-160.1647"
       originy="-12.449999"
       spacingx="0.99999998"
       spacingy="1"
       empcolor="#0099e5"
       empopacity="0.30196078"
       color="#0099e5"
       opacity="0.14901961"
       empspacing="5"
       dotted="false"
       gridanglex="30"
       gridanglez="30"
       enabled="true"
       visible="true" /><inkscape:page
       x="0"
       y="0"
       width="65.051888"
       height="42.599995"
       id="page2"
       margin="0"
       bleed="0" /></sodipodi:namedview><defs
     id="defs1"><linearGradient
       id="linearGradient52"
       inkscape:collect="always"><stop
         style="stop-color:#e49f9f;stop-opacity:1;"
         offset="0.30631647"
         id="stop54" /><stop
         style="stop-color:#be6060;stop-opacity:1;"
         offset="1"
         id="stop53" /></linearGradient><linearGradient
       id="linearGradient50"
       inkscape:collect="always"><stop
         style="stop-color:#e49f9f;stop-opacity:1;"
         offset="0"
         id="stop50" /><stop
         style="stop-color:#be6060;stop-opacity:1;"
         offset="1"
         id="stop51" /></linearGradient><linearGradient
       id="linearGradient48"
       inkscape:collect="always"><stop
         style="stop-color:#be6060;stop-opacity:1;"
         offset="0"
         id="stop48" /><stop
         style="stop-color:#e49f9f;stop-opacity:1;"
         offset="1"
         id="stop49" /></linearGradient><linearGradient
       id="linearGradient45"
       inkscape:collect="always"><stop
         style="stop-color:#e5a3a2;stop-opacity:1;"
         offset="0"
         id="stop45" /><stop
         style="stop-color:#be6060;stop-opacity:1;"
         offset="1"
         id="stop46" /></linearGradient><linearGradient
       id="linearGradient43"
       inkscape:collect="always"><stop
         style="stop-color:#edbfbf;stop-opacity:1;"
         offset="0"
         id="stop43" /><stop
         style="stop-color:#e49f9f;stop-opacity:1;"
         offset="1"
         id="stop44" /></linearGradient><linearGradient
       id="linearGradient41"
       inkscape:collect="always"><stop
         style="stop-color:#be6060;stop-opacity:1;"
         offset="0"
         id="stop41" /><stop
         style="stop-color:#e49f9f;stop-opacity:1;"
         offset="1"
         id="stop42" /></linearGradient><linearGradient
       inkscape:collect="always"
       xlink:href="#linearGradient41"
       id="linearGradient42"
       x1="187.92751"
       y1="28.5"
       x2="196.05005"
       y2="28.810448"
       gradientUnits="userSpaceOnUse"
       gradientTransform="translate(160.16471,12.45)" /><linearGradient
       inkscape:collect="always"
       xlink:href="#linearGradient43"
       id="linearGradient44"
       x1="183.81009"
       y1="31.877192"
       x2="185.72372"
       y2="34.368034"
       gradientUnits="userSpaceOnUse"
       gradientTransform="translate(160.16471,12.45)" /><linearGradient
       inkscape:collect="always"
       xlink:href="#linearGradient45"
       id="linearGradient46"
       x1="186.76059"
       y1="34.996983"
       x2="196.95929"
       y2="35.285496"
       gradientUnits="userSpaceOnUse"
       gradientTransform="translate(160.16471,12.45)" /><linearGradient
       inkscape:collect="always"
       xlink:href="#linearGradient48"
       id="linearGradient49"
       x1="186.19545"
       y1="27.5"
       x2="197.45378"
       y2="27.555912"
       gradientUnits="userSpaceOnUse"
       gradientTransform="translate(160.16471,12.45)" /><linearGradient
       inkscape:collect="always"
       xlink:href="#linearGradient50"
       id="linearGradient51"
       x1="198.70433"
       y1="28.277998"
       x2="200.91789"
       y2="33"
       gradientUnits="userSpaceOnUse"
       gradientTransform="translate(160.16471,12.45)" /><linearGradient
       inkscape:collect="always"
       xlink:href="#linearGradient52"
       id="linearGradient53"
       x1="184.94348"
       y1="36.111015"
       x2="199.18584"
       y2="36"
       gradientUnits="userSpaceOnUse"
       gradientTransform="translate(160.16471,12.45)" /></defs><g
     inkscape:label="Layer 1"
     inkscape:groupmode="layer"
     id="layer1"
     transform="translate(-160.16471,-12.45)"><path
       style="fill:#eadd9b;fill-opacity:1;stroke:#000000;stroke-width:0.1;stroke-linecap:round;stroke-linejoin:round;stroke-dasharray:none;stroke-opacity:1"
       d="m 160.2147,37.499999 21.65063,12.5 43.30127,-25 L 203.51596,12.5 Z"
       id="path281"
       sodipodi:nodetypes="ccccc"
       inkscape:export-filename="Fig_FrequencyVariation_Exemplo.png"
       inkscape:export-xdpi="300"
       inkscape:export-ydpi="300" /><path
       style="fill:#d37373;fill-opacity:1;stroke:#000000;stroke-width:0.1;stroke-linecap:round;stroke-linejoin:round;stroke-dasharray:none;stroke-opacity:1"
       d="m 198.86058,26.156091 1.70615,0.985043 12.39363,-7.132472 -1.70094,-0.98204 z"
       id="path276"
       sodipodi:nodetypes="ccccc" /><path
       style="fill:#f0e7b7;fill-opacity:1;stroke:#000000;stroke-width:0.1;stroke-linecap:round;stroke-linejoin:round;stroke-dasharray:none;stroke-opacity:1"
       d="M 181.86533,54.999998 160.2147,42.499999 v -5 l 21.65063,12.5 z"
       id="path291"
       sodipodi:nodetypes="ccccc" /><path
       style="fill:#c0b478;fill-opacity:1;stroke:#000000;stroke-width:0.1;stroke-linecap:round;stroke-linejoin:round;stroke-dasharray:none;stroke-opacity:1"
       d="m 181.86533,54.999998 43.30126,-25 10e-6,-4.999999 -43.30127,24.999998 z"
       id="path292"
       sodipodi:nodetypes="ccccc" /><path
       style="fill:#e49f9f;fill-opacity:1;stroke:#000000;stroke-width:0.1;stroke-linecap:round;stroke-linejoin:round;stroke-dasharray:none;stroke-opacity:1"
       d="m 172.2091,41.480907 v 1 l 1.71732,0.991498 v -1 z"
       id="path13"
       sodipodi:nodetypes="ccccc" /><path
       style="fill:#be6060;fill-opacity:1;stroke:#000000;stroke-width:0.1;stroke-linecap:round;stroke-linejoin:round;stroke-dasharray:none;stroke-opacity:1"
       d="m 200.56673,28.141134 12.39363,-7.132471 v -1.000001 l -12.39363,7.132472 z"
       id="path14-8"
       sodipodi:nodetypes="ccccc" /><g
       id="g54"><path
         style="opacity:0.99;fill:url(#linearGradient53);fill-opacity:1;stroke:#000000;stroke-width:0.1;stroke-linecap:round;stroke-linejoin:round;stroke-dasharray:none;stroke-dashoffset:0;stroke-opacity:1;paint-order:fill markers stroke"
         d="m 181.43234,31.637862 c -0.24694,1.705694 0.7653,3.466373 3.04064,4.78007 4.09323,2.36318 10.70483,2.377574 14.76034,0.03617 2.21633,-1.285502 3.20689,-3.016174 2.96157,-4.707207 -0.19412,1.355389 -1.277,1.906686 -2.86722,3.375278 -0.25522,0.147344 -0.4597,0.01813 -0.87688,0.453445 -0.69642,0.242924 -1.68025,0.454175 -2.72905,0.817518 -3.63171,0.806404 -6.38009,0.623432 -10.34959,-0.491975 -0.0558,-0.01568 -0.0969,-0.0594 -0.14573,-0.08888 -0.25902,-0.123473 -0.51104,-0.25434 -0.75344,-0.394291 -1.83177,-1.057597 -2.84354,-2.405001 -3.04064,-3.780131 z"
         id="path48"
         sodipodi:nodetypes="sccccccscsss" /><path
         style="opacity:0.99;fill:url(#linearGradient49);fill-opacity:1;stroke:#000000;stroke-width:0.1;stroke-linecap:round;stroke-linejoin:round;stroke-dasharray:none;stroke-dashoffset:0;stroke-opacity:1;paint-order:fill markers stroke"
         d="m 191.59111,25.615182 c 0,0 -5.0418,0.581037 -6.39828,1.905619 -1.895,1.138033 -2.72338,2.650687 -2.48254,4.122229 0.19364,-1.174901 1.06969,-2.316348 2.6293,-3.210657 3.43443,-1.96956 8.96405,-2.033055 12.5889,-0.147795 l 0.83612,-0.48059 c -0.0568,-0.03855 -0.11251,-0.07739 -0.17156,-0.115239 l 0.0145,-0.0083 c -1.57311,-1.438338 -7.01644,-2.065267 -7.01644,-2.065267 z"
         id="path15"
         sodipodi:nodetypes="scccccccss" /><path
         style="opacity:0.99;fill:url(#linearGradient44);fill-opacity:1;stroke:#000000;stroke-width:0.1;stroke-linecap:round;stroke-linejoin:round;stroke-dasharray:none;stroke-dashoffset:0;stroke-opacity:1;paint-order:fill markers stroke"
         d="m 184.18106,31.650364 c -0.23595,1.210147 0.38905,2.466657 1.89492,3.451369 l 0.88367,-0.508496 c -0.0668,-0.03183 -0.13359,-0.0628 -0.19896,-0.09612 l 0.0972,-0.05581 c -0.20725,-0.150875 -0.3913,-0.308912 -0.55191,-0.471806 l -0.22996,0.132291 c -1.09312,-0.714803 -1.91294,-2.348465 -1.9312,-3.227371 z"
         id="path40"
         sodipodi:nodetypes="ccccccccc" /><path
         style="opacity:0.99;fill:url(#linearGradient42);fill-opacity:1;stroke:#000000;stroke-width:0.1;stroke-linecap:round;stroke-linejoin:round;stroke-dasharray:none;stroke-dashoffset:0;stroke-opacity:1;paint-order:fill markers stroke"
         d="m 191.79623,27.26639 c -1.55605,-0.0053 -3.86872,0.74322 -4.42214,1.272436 -0.02,0.01118 -0.0407,0.02171 -0.0605,0.03307 -1.44281,0.833232 -2.04332,1.977907 -1.78284,3.075782 0.18121,-0.762207 0.77697,-1.494434 1.78284,-2.075326 2.48216,-1.42473 6.51459,-1.410854 9.00927,0.02946 1.03279,0.596272 1.63928,1.343791 1.82159,2.116666 0.26259,-1.102461 -0.34518,-2.26421 -1.82159,-3.116605 -0.007,-0.0041 -0.0146,-0.0078 -0.0217,-0.01189 -1.15883,-0.924507 -2.9288,-1.318223 -4.50493,-1.323593 z"
         id="path16"
         sodipodi:nodetypes="cccccsccccc" /><path
         style="fill:#e49f9f;fill-opacity:1;stroke:#000000;stroke-width:0.1;stroke-linecap:round;stroke-linejoin:round;stroke-dasharray:none;stroke-opacity:1"
         d="m 198.84941,26.149636 v 1 l 1.71732,0.991498 v -1 z"
         id="path13-8"
         sodipodi:nodetypes="ccccc" /><path
         style="fill:#be6060;fill-opacity:1;stroke:#000000;stroke-width:0.1;stroke-linecap:round;stroke-linejoin:round;stroke-dasharray:none;stroke-opacity:1"
         d="m 186.07582,34.10163 v 1 l 0.94698,-0.54467 v -1 z"
         id="path17"
         sodipodi:nodetypes="ccccc" /><path
         style="opacity:0.99;fill:url(#linearGradient46);fill-opacity:1;stroke:#000000;stroke-width:0.1;stroke-linecap:round;stroke-linejoin:round;stroke-dasharray:none;stroke-dashoffset:0;stroke-opacity:1;paint-order:fill markers stroke"
         d="m 199.48808,31.722611 c -0.18666,0.958192 -0.91206,1.885769 -2.18229,2.618445 -0.31633,0.181564 -0.6549,0.343133 -1.00924,0.486276 -2.53638,0.381813 -7.50302,0.172667 -9.53606,-0.330422 l 2e-4,1.000148 c 3.06075,1.56027 7.67573,1.490867 10.5451,-0.156063 1.71042,-0.986579 2.43561,-2.326067 2.18229,-3.618384 z"
         id="path41"
         sodipodi:nodetypes="ccccccc" /><path
         style="opacity:0.99;fill:#d37373;fill-opacity:1;stroke:#000000;stroke-width:0.1;stroke-linecap:round;stroke-linejoin:round;stroke-dasharray:none;stroke-dashoffset:0;stroke-opacity:1;paint-order:fill markers stroke"
         d="m 186.36532,28.02467 c -2.86299,1.65062 -2.99131,4.31021 -0.2895,6.07696 l 0.94698,-0.54467 c -2.17768,-1.46195 -2.04997,-3.63307 0.29074,-4.98484 2.48216,-1.42473 6.51453,-1.41081 9.00921,0.0295 2.49471,1.4403 2.51153,3.76418 0.0348,5.19205 -2.34985,1.3465 -6.11742,1.41615 -8.65024,0.15849 l -0.94682,0.54475 c 3.06075,1.56027 7.67591,1.49115 10.54528,-0.15578 2.99492,-1.72748 2.97372,-4.53813 -0.0434,-6.28005 -3.01711,-1.74193 -7.89411,-1.75927 -10.89709,-0.0364 z"
         id="path39" /><path
         style="fill:#be6060;fill-opacity:1;stroke:#000000;stroke-width:0.1;stroke-linecap:round;stroke-linejoin:round;stroke-dasharray:none;stroke-opacity:1"
         d="m 197.92836,27.28458 v 1 l 0.87735,-0.50462 v -1 z"
         id="path38"
         sodipodi:nodetypes="ccccc" /><path
         style="opacity:0.99;fill:url(#linearGradient51);fill-opacity:1;stroke:#000000;stroke-width:0.1;stroke-linecap:round;stroke-linejoin:round;stroke-dasharray:none;stroke-dashoffset:0;stroke-opacity:1;paint-order:fill markers stroke"
         d="m 198.60755,27.680449 -0.0145,1.008756 c 1.37476,0.881113 2.14726,1.95629 2.3275,3.05356 0.19802,-1.204211 -0.22225,-2.869546 -2.313,-4.062316 z"
         id="path47"
         sodipodi:nodetypes="cccc" /><path
         id="path46"
         style="opacity:0.99;fill:#d37373;fill-opacity:1;stroke:#000000;stroke-width:0.1;stroke-linecap:round;stroke-linejoin:round;stroke-dasharray:none;stroke-dashoffset:0;stroke-opacity:1;paint-order:fill markers stroke"
         d="m 184.43752,26.91165 c -4.07018,2.33294 -4.05752,6.14329 0.0356,8.50651 4.09323,2.36318 10.70493,2.3774 14.76044,0.036 3.90041,-2.26229 4.0094,-5.90425 0.25469,-8.28015 l -0.89505,0.51497 c 3.25816,2.08822 3.1456,5.26712 -0.26177,7.24434 -3.56131,2.0552 -9.36582,2.04214 -12.95909,-0.0324 -3.59329,-2.07458 -3.60539,-5.41975 -0.0327,-7.46839 3.43443,-1.96956 8.96387,-2.03321 12.58872,-0.14795 l 0.87735,-0.50462 c -4.11583,-2.16816 -10.43557,-2.11197 -14.3682,0.13172 z" /></g><path
       style="fill:#d37373;fill-opacity:1;stroke:#000000;stroke-width:0.1;stroke-linecap:round;stroke-linejoin:round;stroke-dasharray:none;stroke-opacity:1"
       d="m 172.2091,41.480907 1.71733,0.991498 10.96705,-6.311393 -1.71272,-0.98884 z"
       id="path273"
       sodipodi:nodetypes="ccccc" /><path
       style="fill:#be6060;fill-opacity:1;stroke:#000000;stroke-width:0.1;stroke-linecap:round;stroke-linejoin:round;stroke-dasharray:none;stroke-opacity:1"
       d="m 173.92642,43.472405 10.96706,-6.311392 v -1.000001 l -10.96706,6.311393 z"
       id="path14"
       sodipodi:nodetypes="ccccc" /></g></svg>
